<!DOCTYPE svg PUBLIC "-//W3C//DTD SVG 1.1//EN" "http://www.w3.org/Graphics/SVG/1.1/DTD/svg11.dtd">
<!-- Uploaded to: SVG Repo, www.svgrepo.com, Transformed by: SVG Repo Mixer Tools -->
<svg fill="#EE4C2C" width="800px" height="800px" viewBox="-25.6 -25.6 307.20 307.20" id="Flat" xmlns="http://www.w3.org/2000/svg" stroke="#EE4C2C" stroke-width="0.00256">
<g id="SVGRepo_bgCarrier" stroke-width="0"/>
<g id="SVGRepo_tracerCarrier" stroke-linecap="round" stroke-linejoin="round" stroke="#CCCCCC" stroke-width="0.512"/>
<g id="SVGRepo_iconCarrier"> <path d="M159.86914,142.92188a12.0001,12.0001,0,0,1,23.90332,2.15429,56.11389,56.11389,0,0,1-45.60351,50.001,12.00028,12.00028,0,0,1-4.33692-23.60547A32.037,32.037,0,0,0,159.86914,142.92188ZM224,140a96,96,0,0,1-192,0c0-23.88574,10.10547-51.23047,30.03613-81.27637a11.99921,11.99921,0,0,1,16.65625-3.35058l28.43213,18.9541,28.86377-60.61426a11.99981,11.99981,0,0,1,19.3125-3.333c14.90234,14.877,31.92774,32.9375,45.21484,54.09766C216.31787,89.64355,224,114.34766,224,140Zm-24,0c0-39.25488-22.65723-71.53711-49.75586-100.40039L122.83447,97.15918a12.00062,12.00062,0,0,1-17.49072,4.8252L75.62109,82.16992C62.59375,104.02832,56,123.44336,56,140a72,72,0,0,0,144,0Z"/> </g>
</svg>